Coordinates
version=1
nRows=12
nColumns=24
inDegrees=yes

Units are S.I. units (second, meters, Newtons, ...)
Angles are in degrees.

endheader
time	pelvis_tilt	pelvis_list	pelvis_rotation	pelvis_tx	pelvis_ty	pelvis_tz	hip_flexion_r	hip_adduction_r	hip_rotation_r	knee_angle_r	ankle_angle_r	subtalar_angle_r	mtp_angle_r	hip_flexion_l	hip_adduction_l	hip_rotation_l	knee_angle_l	ankle_angle_l	subtalar_angle_l	mtp_angle_l	lumbar_extension	lumbar_bending	lumbar_rotation
      1.31300000	     -3.24842328	      6.40152885	     -1.53675931	      0.18615518	      0.90148641	      0.35712065	     17.91652571	    -10.95663465	    -10.59639721	    -73.36591441	     -2.09343668	      5.74159470	     11.78710417	     13.76170580	     10.59292737	     -5.30999504	    -18.56942006	      9.47887511	     -7.17589026	      1.41169405	     -3.86193446	     -9.72386541	      2.83654540
      1.31716667	     -3.31210998	      6.29575689	     -1.33355072	      0.19123152	      0.90230922	      0.35669589	     18.63207046	    -10.82209536	    -10.64062976	    -73.19058420	     -1.33536737	      6.00323812	     11.72438157	     13.20839304	     10.58130062	     -4.95002986	    -18.07866887	      9.51089724	     -7.22284459	      1.40898813	     -3.82442118	     -9.60173633	      2.48561903
      1.32133333	     -3.35715299	      6.16899502	     -1.11427708	      0.19627699	      0.90315402	      0.35626751	     19.30354343	    -10.65991955	    -10.69768907	    -72.93313587	     -0.59628353	      6.18134394	     11.66725753	     12.64640946	     10.54129009	     -4.59354701	    -17.61138163	      9.53083336	     -7.24866573	      1.40359520	     -3.83131409	     -9.44370433	      2.20668469
      1.32550000	     -3.40261636	      6.02071946	     -0.88646292	      0.20128819	      0.90398637	      0.35585553	     19.95641590	    -10.46357488	    -10.75176758	    -72.59694933	      0.12412605	      6.29175458	     11.64241326	     12.10438941	     10.46445543	     -4.27866236	    -17.18206175	      9.54304954	     -7.19919404	      1.40018412	     -3.85334098	     -9.25528535	      2.02079864
      1.32966667	     -3.40092229	      5.89484953	     -0.66486474	      0.20635933	      0.90489045	      0.35539550	     20.53423591	    -10.31325442	    -10.80462305	    -72.18199309	      0.77274599	      6.58332288	     11.58467481	     11.46094538	     10.42797967	     -3.87947760	    -16.64808433	      9.55529312	     -7.28144652	      1.38786589	     -3.89667785	     -9.09327991	      1.64890743
      1.33383333	     -3.42086225	      5.72316864	     -0.42383438	      0.21134940	      0.90575109	      0.35498045	     21.11350606	    -10.08798733	    -10.85630987	    -71.68406435	      1.43138239	      6.71729928	     11.55762546	     10.88857461	     10.31888203	     -3.54419990	    -16.20738682	      9.54561151	     -7.24994580	      1.37974379	     -3.95019292	     -8.88773109	      1.45485367
      1.33800000	     -3.38024399	      5.58573780	     -0.20001844	      0.21640406	      0.90668169	      0.35452105	     21.60971808	     -9.92390107	    -10.90246822	    -71.12072268	      2.00728127	      6.97869194	     11.50031714	     10.19542945	     10.25987828	     -3.14240006	    -15.65065090	      9.54525945	     -7.33278286	      1.36118682	     -4.04239706	     -8.70322975	      1.09502278
      1.34216667	     -3.34694192	      5.42418431	      0.03911981	      0.22142545	      0.90759097	      0.35407937	     22.08734522	     -9.72451936	    -10.95476264	    -70.47538187	      2.57350866	      7.15054992	     11.43348112	      9.53058951	     10.16240476	     -2.75596528	    -15.13206741	      9.50998191	     -7.39892523	      1.33667267	     -4.13132378	     -8.51262375	      0.79671924
      1.34633333	     -3.30086529	      5.25392628	      0.27235694	      0.22642444	      0.90848620	      0.35364679	     22.53618037	     -9.51367337	    -10.99818157	    -69.76272121	      3.10295355	      7.32172955	     11.37828818	      8.86122145	     10.04464993	     -2.40164909	    -14.62655804	      9.50856286	     -7.40761489	      1.31457186	     -4.24529985	     -8.28527078	      0.54851622
      1.35050000	     -3.26117616	      5.06231397	      0.50967645	      0.23140186	      0.90935400	      0.35324398	     22.96752542	     -9.27055875	    -11.03914711	    -68.97041599	      3.62402128	      7.44126852	     11.34786597	      8.21982034	      9.88884871	     -2.08683360	    -14.15958269	      9.48900517	     -7.36492767	      1.30002940	     -4.35114817	     -8.05560227	      0.35815551
      1.35466667	     -3.18114396	      4.88232604	      0.74205546	      0.23639551	      0.91024912	      0.35282773	     23.33452151	     -9.04914686	    -11.08039197	    -68.11265137	      4.09728669	      7.56107172	     11.31590441	      7.51685540	      9.74381995	     -1.76108685	    -13.65084101	      9.47922027	     -7.34966270	      1.28456581	     -4.49358053	     -7.82204638	      0.11754394
      1.35883333	     -3.05917455	      4.72979811	      0.96244656	      0.24141168	      0.91116293	      0.35238917	     23.64222932	     -8.86987057	    -11.11620522	    -67.20353423	      4.49400761	      7.67443448	     11.25252708	      6.73306426	      9.63210475	     -1.37711311	    -13.06474401	      9.46250258	     -7.43511529	      1.25601826	     -4.68416819	     -7.60766190	     -0.23087398
